<svg width="187" height="23" viewBox="0 0 187 23" fill="none" xmlns="http://www.w3.org/2000/svg">
<path d="M0.407844 18V1.94H3.39984V15.69H8.87784V18H0.407844ZM11.0426 5.416H13.9906V18H11.0426V5.416ZM12.5166 3.92C11.4166 3.92 10.8666 3.35533 10.8666 2.226C10.8666 1.082 11.4166 0.51 12.5166 0.51C13.6459 0.51 14.2106 1.082 14.2106 2.226C14.2106 3.35533 13.6459 3.92 12.5166 3.92ZM23.6985 18H20.4205L16.1525 5.416H19.1225L22.0485 14.524L24.9965 5.416H27.9665L23.6985 18ZM33.0687 18H30.1207V5.416H31.5067L32.6727 7.374C33.6847 5.93667 35.1147 5.18133 36.9627 5.108V7.638C35.2321 7.682 33.9341 8.21 33.0687 9.222V18ZM43.5017 5.108C46.6991 5.108 48.2977 6.56733 48.2977 9.486V18H46.3837L45.5477 16.46C44.3744 17.692 43.0031 18.308 41.4337 18.308C40.3191 18.308 39.4684 18 38.8817 17.384C38.3097 16.7533 38.0237 15.9173 38.0237 14.876C38.0237 13.82 38.3537 12.9693 39.0137 12.324C39.6737 11.6787 40.9057 11.224 42.7097 10.96L45.3497 10.564V9.508C45.3497 8.08533 44.6751 7.374 43.3257 7.374C42.0497 7.374 41.2944 8.01933 41.0597 9.31L38.7717 8.628C39.3291 6.28133 40.9057 5.108 43.5017 5.108ZM42.3797 16.152C43.3771 16.152 44.3671 15.6607 45.3497 14.678V12.412L43.2377 12.786C42.2844 12.9473 41.6537 13.204 41.3457 13.556C41.0377 13.908 40.8837 14.304 40.8837 14.744C40.8837 15.184 41.0157 15.5287 41.2797 15.778C41.5437 16.0273 41.9104 16.152 42.3797 16.152ZM52.2067 5.416H55.1547V18H52.2067V5.416ZM53.6807 3.92C52.5807 3.92 52.0307 3.35533 52.0307 2.226C52.0307 1.082 52.5807 0.51 53.6807 0.51C54.81 0.51 55.3747 1.082 55.3747 2.226C55.3747 3.35533 54.81 3.92 53.6807 3.92ZM68.2945 14.48C68.2945 16.988 66.5345 18.242 63.0145 18.242C61.4745 18.242 60.3305 17.912 59.5825 17.252C58.8345 16.5773 58.3652 15.602 58.1745 14.326L60.4625 13.974C60.6238 15.382 61.4965 16.086 63.0805 16.086C64.6792 16.086 65.4785 15.5873 65.4785 14.59C65.4785 14.1793 65.3172 13.8713 64.9945 13.666C64.6865 13.4607 64.0558 13.248 63.1025 13.028L62.0905 12.786C60.7852 12.478 59.8465 12.0307 59.2745 11.444C58.7172 10.8427 58.4385 9.97733 58.4385 8.848C58.4385 6.35467 60.1398 5.108 63.5425 5.108C65.0092 5.108 66.1018 5.44533 66.8205 6.12C67.5538 6.78 68.0085 7.748 68.1845 9.024L65.8965 9.354C65.7352 7.96067 64.9212 7.264 63.4545 7.264C62.0025 7.264 61.2765 7.76267 61.2765 8.76C61.2765 9.17067 61.4158 9.486 61.6945 9.706C61.9878 9.91133 62.5745 10.1167 63.4545 10.322L64.5985 10.608C65.9038 10.9307 66.8425 11.3853 67.4145 11.972C68.0012 12.544 68.2945 13.38 68.2945 14.48ZM73.5503 14.942C73.9316 15.6753 74.6649 16.042 75.7503 16.042C76.8356 16.042 77.5689 15.6753 77.9503 14.942C78.3316 14.2087 78.5223 13.1307 78.5223 11.708C78.5223 10.2853 78.3316 9.20733 77.9503 8.474C77.5689 7.74067 76.8356 7.374 75.7503 7.374C74.6649 7.374 73.9316 7.74067 73.5503 8.474C73.1689 9.20733 72.9783 10.2853 72.9783 11.708C72.9783 13.1307 73.1689 14.2087 73.5503 14.942ZM81.4703 11.708C81.4703 16.108 79.5636 18.308 75.7503 18.308C71.9369 18.308 70.0303 16.108 70.0303 11.708C70.0303 7.308 71.9369 5.108 75.7503 5.108C79.5636 5.108 81.4703 7.308 81.4703 11.708ZM86.6578 6.56C88.0365 5.592 89.4445 5.108 90.8818 5.108C92.3338 5.108 93.3825 5.46733 94.0278 6.186C94.6731 6.89 94.9958 7.86533 94.9958 9.112V18H92.0478V9.42C92.0478 8.672 91.9085 8.144 91.6298 7.836C91.3658 7.528 90.8965 7.374 90.2218 7.374C89.1658 7.374 88.1831 7.704 87.2738 8.364V18H84.3258V5.416H85.7118L86.6578 6.56ZM113.266 12.786C112.929 13.2553 112.416 13.6293 111.726 13.908C111.037 14.172 110.223 14.304 109.284 14.304C108.36 14.304 107.59 14.194 106.974 13.974L106.358 14.634C106.109 14.8833 105.984 15.1253 105.984 15.36C105.984 15.712 106.226 15.888 106.71 15.888H111.396C112.555 15.888 113.464 16.2033 114.124 16.834C114.799 17.4647 115.136 18.2053 115.136 19.056C115.136 19.9067 114.96 20.5813 114.608 21.08C114.256 21.5787 113.75 21.9453 113.09 22.18C111.976 22.576 110.546 22.774 108.8 22.774C107.07 22.774 105.735 22.5613 104.796 22.136C103.858 21.7253 103.388 21.014 103.388 20.002C103.388 19.518 103.528 19.078 103.806 18.682C104.085 18.3007 104.43 18.0073 104.84 17.802C103.946 17.5233 103.498 16.8707 103.498 15.844C103.498 15.1693 103.762 14.546 104.29 13.974L105.302 12.918C104.613 12.126 104.268 11.0553 104.268 9.706C104.268 8.518 104.591 7.49133 105.236 6.626C105.97 5.614 107.304 5.108 109.24 5.108C110.076 5.108 110.802 5.21067 111.418 5.416H115.092V7.154H113.64C114.036 7.87267 114.234 8.628 114.234 9.42C114.234 10.1973 114.161 10.8353 114.014 11.334C113.868 11.8327 113.618 12.3167 113.266 12.786ZM109.24 7.066C107.803 7.066 107.084 7.946 107.084 9.706C107.084 11.466 107.803 12.346 109.24 12.346C110.692 12.346 111.418 11.466 111.418 9.706C111.418 7.946 110.692 7.066 109.24 7.066ZM106.072 19.342C106.072 19.87 106.307 20.2073 106.776 20.354C107.26 20.5007 108.052 20.574 109.152 20.574C110.252 20.574 111.03 20.486 111.484 20.31C111.954 20.1487 112.188 19.7893 112.188 19.232C112.188 18.4107 111.616 18 110.472 18H106.71C106.285 18.3813 106.072 18.8287 106.072 19.342ZM120.639 18H117.691V5.416H119.077L120.243 7.374C121.255 5.93667 122.685 5.18133 124.533 5.108V7.638C122.802 7.682 121.504 8.21 120.639 9.222V18ZM131.072 5.108C134.269 5.108 135.868 6.56733 135.868 9.486V18H133.954L133.118 16.46C131.945 17.692 130.573 18.308 129.004 18.308C127.889 18.308 127.039 18 126.452 17.384C125.88 16.7533 125.594 15.9173 125.594 14.876C125.594 13.82 125.924 12.9693 126.584 12.324C127.244 11.6787 128.476 11.224 130.28 10.96L132.92 10.564V9.508C132.92 8.08533 132.245 7.374 130.896 7.374C129.62 7.374 128.865 8.01933 128.63 9.31L126.342 8.628C126.899 6.28133 128.476 5.108 131.072 5.108ZM129.95 16.152C130.947 16.152 131.937 15.6607 132.92 14.678V12.412L130.808 12.786C129.855 12.9473 129.224 13.204 128.916 13.556C128.608 13.908 128.454 14.304 128.454 14.744C128.454 15.184 128.586 15.5287 128.85 15.778C129.114 16.0273 129.481 16.152 129.95 16.152ZM137.907 7.33V5.416H139.931V3.128L142.879 2.38V5.416H145.277V7.33H142.879V14.436C142.879 15.0667 142.967 15.514 143.143 15.778C143.334 16.042 143.605 16.174 143.957 16.174C144.324 16.174 144.72 16.1153 145.145 15.998L145.519 17.824C144.654 18.1467 143.876 18.308 143.187 18.308C142.512 18.308 141.97 18.2273 141.559 18.066C141.148 17.9047 140.84 17.7213 140.635 17.516C140.43 17.296 140.276 17.0027 140.173 16.636C140.012 16.1227 139.931 15.4847 139.931 14.722V7.33H137.907ZM151.357 18.308C148.775 18.308 147.485 16.9733 147.485 14.304V5.416H150.433V13.82C150.433 14.5827 150.579 15.1473 150.873 15.514C151.181 15.866 151.687 16.042 152.391 16.042C153.388 16.042 154.334 15.5727 155.229 14.634V5.416H158.177V18H156.263L155.427 16.482C154.283 17.6993 152.926 18.308 151.357 18.308ZM162.314 5.416H165.262V18H162.314V5.416ZM163.788 3.92C162.688 3.92 162.138 3.35533 162.138 2.226C162.138 1.082 162.688 0.51 163.788 0.51C164.917 0.51 165.482 1.082 165.482 2.226C165.482 3.35533 164.917 3.92 163.788 3.92ZM167.534 7.33V5.416H169.558V3.128L172.506 2.38V5.416H174.904V7.33H172.506V14.436C172.506 15.0667 172.594 15.514 172.77 15.778C172.961 16.042 173.232 16.174 173.584 16.174C173.951 16.174 174.347 16.1153 174.772 15.998L175.146 17.824C174.281 18.1467 173.503 18.308 172.814 18.308C172.139 18.308 171.597 18.2273 171.186 18.066C170.775 17.9047 170.467 17.7213 170.262 17.516C170.057 17.296 169.903 17.0027 169.8 16.636C169.639 16.1227 169.558 15.4847 169.558 14.722V7.33H167.534ZM181.688 18.308C179.664 18.308 178.219 17.7653 177.354 16.68C176.488 15.58 176.056 13.9227 176.056 11.708C176.056 7.308 177.904 5.108 181.6 5.108C183.726 5.108 185.178 5.768 185.956 7.088C186.63 8.21733 186.968 9.684 186.968 11.488V12.28H178.916C178.93 13.6587 179.158 14.634 179.598 15.206C180.038 15.7633 180.764 16.042 181.776 16.042C183.404 16.042 184.269 15.4553 184.372 14.282L186.792 14.37C186.557 16.9953 184.856 18.308 181.688 18.308ZM183.382 8.1C183.015 7.616 182.414 7.374 181.578 7.374C180.742 7.374 180.126 7.60867 179.73 8.078C179.348 8.53267 179.099 9.266 178.982 10.278H184.064C183.976 9.29533 183.748 8.56933 183.382 8.1Z" fill="black"/>
</svg>
