<svg width="267" height="21" viewBox="0 0 267 21" fill="none" xmlns="http://www.w3.org/2000/svg">
<path d="M5.69835 13.302H3.14635V19H0.15435V2.94H5.69835C7.63435 2.94 8.99835 3.468 9.79035 4.524C10.4797 5.47733 10.8244 6.68 10.8244 8.132C10.8244 9.56933 10.4797 10.7573 9.79035 11.696C8.99835 12.7667 7.63435 13.302 5.69835 13.302ZM3.14635 10.992H5.23635C6.96702 10.992 7.83235 10.0387 7.83235 8.132C7.83235 6.21067 6.96702 5.25 5.23635 5.25H3.14635V10.992ZM17.6373 19.308C15.6133 19.308 14.1686 18.7653 13.3033 17.68C12.438 16.58 12.0053 14.9227 12.0053 12.708C12.0053 8.308 13.8533 6.108 17.5493 6.108C19.676 6.108 21.128 6.768 21.9053 8.088C22.58 9.21733 22.9173 10.684 22.9173 12.488V13.28H14.8653C14.88 14.6587 15.1073 15.634 15.5473 16.206C15.9873 16.7633 16.7133 17.042 17.7253 17.042C19.3533 17.042 20.2186 16.4553 20.3213 15.282L22.7413 15.37C22.5066 17.9953 20.8053 19.308 17.6373 19.308ZM19.3313 9.1C18.9646 8.616 18.3633 8.374 17.5273 8.374C16.6913 8.374 16.0753 8.60867 15.6793 9.078C15.298 9.53267 15.0486 10.266 14.9313 11.278H20.0133C19.9253 10.2953 19.698 9.56933 19.3313 9.1ZM25.6778 6.416H28.6258V19H25.6778V6.416ZM27.1518 4.92C26.0518 4.92 25.5018 4.35533 25.5018 3.226C25.5018 2.082 26.0518 1.51 27.1518 1.51C28.2811 1.51 28.8458 2.082 28.8458 3.226C28.8458 4.35533 28.2811 4.92 27.1518 4.92ZM37.1236 19.308C35.0996 19.308 33.655 18.7653 32.7896 17.68C31.9243 16.58 31.4916 14.9227 31.4916 12.708C31.4916 8.308 33.3396 6.108 37.0356 6.108C39.1623 6.108 40.6143 6.768 41.3916 8.088C42.0663 9.21733 42.4036 10.684 42.4036 12.488V13.28H34.3516C34.3663 14.6587 34.5936 15.634 35.0336 16.206C35.4736 16.7633 36.1996 17.042 37.2116 17.042C38.8396 17.042 39.705 16.4553 39.8076 15.282L42.2276 15.37C41.993 17.9953 40.2916 19.308 37.1236 19.308ZM38.8176 9.1C38.451 8.616 37.8496 8.374 37.0136 8.374C36.1776 8.374 35.5616 8.60867 35.1656 9.078C34.7843 9.53267 34.535 10.266 34.4176 11.278H39.4996C39.4116 10.2953 39.1843 9.56933 38.8176 9.1ZM51.2581 6.108C53.0181 6.108 54.2501 6.614 54.9541 7.626C56.2154 6.614 57.5574 6.108 58.9801 6.108C60.4174 6.108 61.4808 6.46733 62.1701 7.186C62.8594 7.89 63.2041 8.86533 63.2041 10.112V19H60.2561V10.596C60.2561 9.83333 60.1168 9.276 59.8381 8.924C59.5594 8.55733 59.0681 8.374 58.3641 8.374C57.3668 8.374 56.4501 8.71867 55.6141 9.408C55.6434 9.70133 55.6581 9.936 55.6581 10.112V19H52.7101V10.596C52.7101 9.83333 52.5634 9.276 52.2701 8.924C51.9768 8.55733 51.4121 8.374 50.5761 8.374C49.7548 8.374 48.9334 8.66733 48.1121 9.254V19H45.1641V6.416H46.7261L47.4961 7.45C48.6841 6.55533 49.9381 6.108 51.2581 6.108ZM71.4771 19.308C69.4531 19.308 68.0085 18.7653 67.1431 17.68C66.2778 16.58 65.8451 14.9227 65.8451 12.708C65.8451 8.308 67.6931 6.108 71.3891 6.108C73.5158 6.108 74.9678 6.768 75.7451 8.088C76.4198 9.21733 76.7571 10.684 76.7571 12.488V13.28H68.7051C68.7198 14.6587 68.9471 15.634 69.3871 16.206C69.8271 16.7633 70.5531 17.042 71.5651 17.042C73.1931 17.042 74.0585 16.4553 74.1611 15.282L76.5811 15.37C76.3465 17.9953 74.6451 19.308 71.4771 19.308ZM73.1711 9.1C72.8045 8.616 72.2031 8.374 71.3671 8.374C70.5311 8.374 69.9151 8.60867 69.5191 9.078C69.1378 9.53267 68.8885 10.266 68.7711 11.278H73.8531C73.7651 10.2953 73.5378 9.56933 73.1711 9.1ZM81.8496 7.56C83.2283 6.592 84.6363 6.108 86.0736 6.108C87.5256 6.108 88.5743 6.46733 89.2196 7.186C89.865 7.89 90.1876 8.86533 90.1876 10.112V19H87.2396V10.42C87.2396 9.672 87.1003 9.144 86.8216 8.836C86.5576 8.528 86.0883 8.374 85.4136 8.374C84.3576 8.374 83.375 8.704 82.4656 9.364V19H79.5176V6.416H80.9036L81.8496 7.56ZM92.2355 8.33V6.416H94.2595V4.128L97.2075 3.38V6.416H99.6055V8.33H97.2075V15.436C97.2075 16.0667 97.2955 16.514 97.4715 16.778C97.6622 17.042 97.9335 17.174 98.2855 17.174C98.6522 17.174 99.0482 17.1153 99.4735 16.998L99.8475 18.824C98.9822 19.1467 98.2049 19.308 97.5155 19.308C96.8409 19.308 96.2982 19.2273 95.8875 19.066C95.4769 18.9047 95.1689 18.7213 94.9635 18.516C94.7582 18.296 94.6042 18.0027 94.5015 17.636C94.3402 17.1227 94.2595 16.4847 94.2595 15.722V8.33H92.2355ZM108.862 5.888V4.15C110.578 3.95933 111.869 3.556 112.734 2.94H115.088V16.668H118.278V19H108.906V16.668H112.096V5.888H108.862ZM130.323 18.692C129.516 19.1027 128.526 19.308 127.353 19.308C126.179 19.308 125.189 19.1027 124.383 18.692C123.576 18.2667 122.96 17.658 122.535 16.866C122.109 16.0593 121.809 15.1867 121.633 14.248C121.457 13.3093 121.369 12.2167 121.369 10.97C121.369 9.72333 121.457 8.63067 121.633 7.692C121.809 6.75333 122.109 5.888 122.535 5.096C122.96 4.28933 123.576 3.67333 124.383 3.248C125.189 2.82267 126.179 2.61 127.353 2.61C128.526 2.61 129.516 2.82267 130.323 3.248C131.144 3.67333 131.767 4.28933 132.193 5.096C132.618 5.888 132.919 6.75333 133.095 7.692C133.271 8.63067 133.359 9.72333 133.359 10.97C133.359 12.2167 133.271 13.3093 133.095 14.248C132.919 15.1867 132.618 16.0593 132.193 16.866C131.767 17.658 131.144 18.2667 130.323 18.692ZM124.977 15.524C125.402 16.5067 126.194 16.998 127.353 16.998C128.511 16.998 129.303 16.5067 129.729 15.524C130.169 14.5413 130.389 13.0233 130.389 10.97C130.389 8.91667 130.169 7.39867 129.729 6.416C129.303 5.43333 128.511 4.942 127.353 4.942C126.561 4.942 125.937 5.19133 125.483 5.69C125.028 6.18867 124.72 6.856 124.559 7.692C124.412 8.528 124.339 9.79667 124.339 11.498C124.339 13.1993 124.551 14.5413 124.977 15.524ZM144.545 18.692C143.738 19.1027 142.748 19.308 141.575 19.308C140.402 19.308 139.412 19.1027 138.605 18.692C137.798 18.2667 137.182 17.658 136.757 16.866C136.332 16.0593 136.031 15.1867 135.855 14.248C135.679 13.3093 135.591 12.2167 135.591 10.97C135.591 9.72333 135.679 8.63067 135.855 7.692C136.031 6.75333 136.332 5.888 136.757 5.096C137.182 4.28933 137.798 3.67333 138.605 3.248C139.412 2.82267 140.402 2.61 141.575 2.61C142.748 2.61 143.738 2.82267 144.545 3.248C145.366 3.67333 145.99 4.28933 146.415 5.096C146.84 5.888 147.141 6.75333 147.317 7.692C147.493 8.63067 147.581 9.72333 147.581 10.97C147.581 12.2167 147.493 13.3093 147.317 14.248C147.141 15.1867 146.84 16.0593 146.415 16.866C145.99 17.658 145.366 18.2667 144.545 18.692ZM139.199 15.524C139.624 16.5067 140.416 16.998 141.575 16.998C142.734 16.998 143.526 16.5067 143.951 15.524C144.391 14.5413 144.611 13.0233 144.611 10.97C144.611 8.91667 144.391 7.39867 143.951 6.416C143.526 5.43333 142.734 4.942 141.575 4.942C140.783 4.942 140.16 5.19133 139.705 5.69C139.25 6.18867 138.942 6.856 138.781 7.692C138.634 8.528 138.561 9.79667 138.561 11.498C138.561 13.1993 138.774 14.5413 139.199 15.524ZM155.732 20.452L160.44 2.83H162.31L157.58 20.452H155.732ZM168.052 17.988C167.524 18.78 166.57 19.176 165.192 19.176C163.813 19.176 162.86 18.78 162.332 17.988C161.818 17.1813 161.562 16.0373 161.562 14.556C161.562 13.0747 161.818 11.9307 162.332 11.124C162.86 10.3027 163.813 9.892 165.192 9.892C166.57 9.892 167.524 10.3027 168.052 11.124C168.58 11.9307 168.844 13.0747 168.844 14.556C168.844 16.0373 168.58 17.1813 168.052 17.988ZM164.092 14.534C164.092 15.5607 164.165 16.2793 164.312 16.69C164.458 17.1007 164.752 17.306 165.192 17.306C165.646 17.306 165.947 17.1007 166.094 16.69C166.24 16.2793 166.314 15.5607 166.314 14.534C166.314 13.5073 166.24 12.796 166.094 12.4C165.947 11.9893 165.646 11.784 165.192 11.784C164.752 11.784 164.458 11.9893 164.312 12.4C164.165 12.796 164.092 13.5073 164.092 14.534ZM155.93 10.816C155.402 11.608 154.448 12.004 153.07 12.004C151.691 12.004 150.738 11.608 150.21 10.816C149.696 10.0093 149.44 8.86533 149.44 7.384C149.44 5.90267 149.696 4.75867 150.21 3.952C150.738 3.13067 151.691 2.72 153.07 2.72C154.448 2.72 155.402 3.13067 155.93 3.952C156.458 4.75867 156.722 5.90267 156.722 7.384C156.722 8.86533 156.458 10.0093 155.93 10.816ZM151.97 7.362C151.97 8.38867 152.043 9.10733 152.19 9.518C152.336 9.92867 152.63 10.134 153.07 10.134C153.524 10.134 153.825 9.92867 153.972 9.518C154.118 9.10733 154.192 8.38867 154.192 7.362C154.192 6.33533 154.118 5.624 153.972 5.228C153.825 4.81733 153.524 4.612 153.07 4.612C152.63 4.612 152.336 4.81733 152.19 5.228C152.043 5.624 151.97 6.33533 151.97 7.362ZM187.279 15.48C187.279 17.988 185.519 19.242 181.999 19.242C180.459 19.242 179.315 18.912 178.567 18.252C177.819 17.5773 177.35 16.602 177.159 15.326L179.447 14.974C179.609 16.382 180.481 17.086 182.065 17.086C183.664 17.086 184.463 16.5873 184.463 15.59C184.463 15.1793 184.302 14.8713 183.979 14.666C183.671 14.4607 183.041 14.248 182.087 14.028L181.075 13.786C179.77 13.478 178.831 13.0307 178.259 12.444C177.702 11.8427 177.423 10.9773 177.423 9.848C177.423 7.35467 179.125 6.108 182.527 6.108C183.994 6.108 185.087 6.44533 185.805 7.12C186.539 7.78 186.993 8.748 187.169 10.024L184.881 10.354C184.72 8.96067 183.906 8.264 182.439 8.264C180.987 8.264 180.261 8.76267 180.261 9.76C180.261 10.1707 180.401 10.486 180.679 10.706C180.973 10.9113 181.559 11.1167 182.439 11.322L183.583 11.608C184.889 11.9307 185.827 12.3853 186.399 12.972C186.986 13.544 187.279 14.38 187.279 15.48ZM194.647 19.308C192.623 19.308 191.178 18.7653 190.313 17.68C189.448 16.58 189.015 14.9227 189.015 12.708C189.015 8.308 190.863 6.108 194.559 6.108C196.686 6.108 198.138 6.768 198.915 8.088C199.59 9.21733 199.927 10.684 199.927 12.488V13.28H191.875C191.89 14.6587 192.117 15.634 192.557 16.206C192.997 16.7633 193.723 17.042 194.735 17.042C196.363 17.042 197.228 16.4553 197.331 15.282L199.751 15.37C199.516 17.9953 197.815 19.308 194.647 19.308ZM196.341 9.1C195.974 8.616 195.373 8.374 194.537 8.374C193.701 8.374 193.085 8.60867 192.689 9.078C192.308 9.53267 192.058 10.266 191.941 11.278H197.023C196.935 10.2953 196.708 9.56933 196.341 9.1ZM193.635 5.36L192.645 3.776L196.935 0.849999L198.255 2.962L193.635 5.36ZM204.91 9.43C204.543 10.134 204.36 11.2267 204.36 12.708C204.36 14.1893 204.543 15.282 204.91 15.986C205.291 16.69 205.944 17.042 206.868 17.042C207.806 17.042 208.474 16.8513 208.87 16.47C209.28 16.0887 209.5 15.4873 209.53 14.666L211.84 14.776C211.752 16.272 211.312 17.4013 210.52 18.164C209.742 18.9267 208.459 19.308 206.67 19.308C204.572 19.308 203.142 18.626 202.38 17.262C202.013 16.602 201.756 15.9127 201.61 15.194C201.478 14.4753 201.412 13.6467 201.412 12.708C201.412 11.7547 201.478 10.9187 201.61 10.2C201.756 9.46667 202.013 8.77733 202.38 8.132C203.128 6.78267 204.558 6.108 206.67 6.108C208.444 6.108 209.72 6.47467 210.498 7.208C211.275 7.92667 211.715 9.00467 211.818 10.442L209.53 10.75C209.5 9.92867 209.28 9.32733 208.87 8.946C208.474 8.56467 207.806 8.374 206.868 8.374C205.944 8.374 205.291 8.726 204.91 9.43ZM218.134 19.308C215.553 19.308 214.262 17.9733 214.262 15.304V6.416H217.21V14.82C217.21 15.5827 217.357 16.1473 217.65 16.514C217.958 16.866 218.464 17.042 219.168 17.042C220.166 17.042 221.112 16.5727 222.006 15.634V6.416H224.954V19H223.04L222.204 17.482C221.06 18.6993 219.704 19.308 218.134 19.308ZM232.04 19H229.092V6.416H230.478L231.644 8.374C232.656 6.93667 234.086 6.18133 235.934 6.108V8.638C234.203 8.682 232.905 9.21 232.04 10.222V19ZM238.051 6.416H240.999V19H238.051V6.416ZM239.525 4.92C238.425 4.92 237.875 4.35533 237.875 3.226C237.875 2.082 238.425 1.51 239.525 1.51C240.654 1.51 241.219 2.082 241.219 3.226C241.219 4.35533 240.654 4.92 239.525 4.92ZM254.139 15.48C254.139 17.988 252.379 19.242 248.859 19.242C247.319 19.242 246.175 18.912 245.427 18.252C244.679 17.5773 244.209 16.602 244.019 15.326L246.307 14.974C246.468 16.382 247.341 17.086 248.925 17.086C250.523 17.086 251.323 16.5873 251.323 15.59C251.323 15.1793 251.161 14.8713 250.839 14.666C250.531 14.4607 249.9 14.248 248.947 14.028L247.935 13.786C246.629 13.478 245.691 13.0307 245.119 12.444C244.561 11.8427 244.283 10.9773 244.283 9.848C244.283 7.35467 245.984 6.108 249.387 6.108C250.853 6.108 251.946 6.44533 252.665 7.12C253.398 7.78 253.853 8.748 254.029 10.024L251.741 10.354C251.579 8.96067 250.765 8.264 249.299 8.264C247.847 8.264 247.121 8.76267 247.121 9.76C247.121 10.1707 247.26 10.486 247.539 10.706C247.832 10.9113 248.419 11.1167 249.299 11.322L250.443 11.608C251.748 11.9307 252.687 12.3853 253.259 12.972C253.845 13.544 254.139 14.38 254.139 15.48ZM261.506 19.308C259.482 19.308 258.038 18.7653 257.172 17.68C256.307 16.58 255.874 14.9227 255.874 12.708C255.874 8.308 257.722 6.108 261.418 6.108C263.545 6.108 264.997 6.768 265.774 8.088C266.449 9.21733 266.786 10.684 266.786 12.488V13.28H258.734C258.749 14.6587 258.976 15.634 259.416 16.206C259.856 16.7633 260.582 17.042 261.594 17.042C263.222 17.042 264.088 16.4553 264.19 15.282L266.61 15.37C266.376 17.9953 264.674 19.308 261.506 19.308ZM263.2 9.1C262.834 8.616 262.232 8.374 261.396 8.374C260.56 8.374 259.944 8.60867 259.548 9.078C259.167 9.53267 258.918 10.266 258.8 11.278H263.882C263.794 10.2953 263.567 9.56933 263.2 9.1ZM260.494 5.36L259.504 3.776L263.794 0.849999L265.114 2.962L260.494 5.36Z" fill="black"/>
</svg>
