<svg width="171" height="23" viewBox="0 0 171 23" fill="none" xmlns="http://www.w3.org/2000/svg">
<path d="M0.131477 1.94H5.74148C7.78014 1.94 9.19548 2.47533 9.98748 3.546C10.6621 4.47 10.9995 5.55533 10.9995 6.802C10.9995 9.01667 10.1341 10.4833 8.40348 11.202C8.72614 11.554 9.00481 11.994 9.23948 12.522L11.6815 18H8.49148L6.20348 12.786C5.99814 12.346 5.77081 12.0453 5.52148 11.884C5.28681 11.7227 4.92748 11.642 4.44348 11.642H3.12348V18H0.131477V1.94ZM3.12348 9.332H5.38948C6.26948 9.332 6.92214 9.09 7.34748 8.606C7.78748 8.122 8.00748 7.52067 8.00748 6.802C8.00748 6.06867 7.78748 5.46 7.34748 4.976C6.92214 4.492 6.26948 4.25 5.38948 4.25H3.12348V9.332ZM19.0109 18.308C16.9869 18.308 15.5422 17.7653 14.6769 16.68C13.8116 15.58 13.3789 13.9227 13.3789 11.708C13.3789 7.308 15.2269 5.108 18.9229 5.108C21.0496 5.108 22.5016 5.768 23.2789 7.088C23.9536 8.21733 24.2909 9.684 24.2909 11.488V12.28H16.2389C16.2536 13.6587 16.4809 14.634 16.9209 15.206C17.3609 15.7633 18.0869 16.042 19.0989 16.042C20.7269 16.042 21.5922 15.4553 21.6949 14.282L24.1149 14.37C23.8802 16.9953 22.1789 18.308 19.0109 18.308ZM20.7049 8.1C20.3382 7.616 19.7369 7.374 18.9009 7.374C18.0649 7.374 17.4489 7.60867 17.0529 8.078C16.6716 8.53267 16.4222 9.266 16.3049 10.278H21.3869C21.2989 9.29533 21.0716 8.56933 20.7049 8.1ZM25.1814 7.33V5.416H27.2054V3.128L30.1534 2.38V5.416H32.5514V7.33H30.1534V14.436C30.1534 15.0667 30.2414 15.514 30.4174 15.778C30.6081 16.042 30.8794 16.174 31.2314 16.174C31.5981 16.174 31.9941 16.1153 32.4194 15.998L32.7934 17.824C31.9281 18.1467 31.1507 18.308 30.4614 18.308C29.7867 18.308 29.2441 18.2273 28.8334 18.066C28.4227 17.9047 28.1147 17.7213 27.9094 17.516C27.7041 17.296 27.5501 17.0027 27.4474 16.636C27.2861 16.1227 27.2054 15.4847 27.2054 14.722V7.33H25.1814ZM37.2231 14.942C37.6045 15.6753 38.3378 16.042 39.4231 16.042C40.5085 16.042 41.2418 15.6753 41.6231 14.942C42.0045 14.2087 42.1951 13.1307 42.1951 11.708C42.1951 10.2853 42.0045 9.20733 41.6231 8.474C41.2418 7.74067 40.5085 7.374 39.4231 7.374C38.3378 7.374 37.6045 7.74067 37.2231 8.474C36.8418 9.20733 36.6511 10.2853 36.6511 11.708C36.6511 13.1307 36.8418 14.2087 37.2231 14.942ZM45.1431 11.708C45.1431 16.108 43.2365 18.308 39.4231 18.308C35.6098 18.308 33.7031 16.108 33.7031 11.708C33.7031 7.308 35.6098 5.108 39.4231 5.108C43.2365 5.108 45.1431 7.308 45.1431 11.708ZM51.6507 18.308C49.0693 18.308 47.7787 16.9733 47.7787 14.304V5.416H50.7267V13.82C50.7267 14.5827 50.8733 15.1473 51.1667 15.514C51.4747 15.866 51.9807 16.042 52.6847 16.042C53.682 16.042 54.628 15.5727 55.5227 14.634V5.416H58.4707V18H56.5567L55.7207 16.482C54.5767 17.6993 53.22 18.308 51.6507 18.308ZM65.556 18H62.608V5.416H63.994L65.16 7.374C66.172 5.93667 67.602 5.18133 69.45 5.108V7.638C67.7194 7.682 66.4214 8.21 65.556 9.222V18ZM80.565 14.48C80.565 16.988 78.805 18.242 75.285 18.242C73.745 18.242 72.601 17.912 71.853 17.252C71.105 16.5773 70.6357 15.602 70.445 14.326L72.733 13.974C72.8944 15.382 73.767 16.086 75.351 16.086C76.9497 16.086 77.749 15.5873 77.749 14.59C77.749 14.1793 77.5877 13.8713 77.265 13.666C76.957 13.4607 76.3264 13.248 75.373 13.028L74.361 12.786C73.0557 12.478 72.117 12.0307 71.545 11.444C70.9877 10.8427 70.709 9.97733 70.709 8.848C70.709 6.35467 72.4104 5.108 75.813 5.108C77.2797 5.108 78.3724 5.44533 79.091 6.12C79.8244 6.78 80.279 7.748 80.455 9.024L78.167 9.354C78.0057 7.96067 77.1917 7.264 75.725 7.264C74.273 7.264 73.547 7.76267 73.547 8.76C73.547 9.17067 73.6864 9.486 73.965 9.706C74.2584 9.91133 74.845 10.1167 75.725 10.322L76.869 10.608C78.1744 10.9307 79.113 11.3853 79.685 11.972C80.2717 12.544 80.565 13.38 80.565 14.48ZM97.9294 12.786C97.592 13.2553 97.0787 13.6293 96.3894 13.908C95.7 14.172 94.886 14.304 93.9474 14.304C93.0234 14.304 92.2534 14.194 91.6374 13.974L91.0214 14.634C90.772 14.8833 90.6474 15.1253 90.6474 15.36C90.6474 15.712 90.8894 15.888 91.3734 15.888H96.0594C97.2181 15.888 98.1274 16.2033 98.7874 16.834C99.4621 17.4647 99.7994 18.2053 99.7994 19.056C99.7994 19.9067 99.6234 20.5813 99.2714 21.08C98.9194 21.5787 98.4134 21.9453 97.7534 22.18C96.6387 22.576 95.2087 22.774 93.4634 22.774C91.7327 22.774 90.398 22.5613 89.4594 22.136C88.5207 21.7253 88.0514 21.014 88.0514 20.002C88.0514 19.518 88.1907 19.078 88.4694 18.682C88.748 18.3007 89.0927 18.0073 89.5034 17.802C88.6087 17.5233 88.1614 16.8707 88.1614 15.844C88.1614 15.1693 88.4254 14.546 88.9534 13.974L89.9654 12.918C89.276 12.126 88.9314 11.0553 88.9314 9.706C88.9314 8.518 89.254 7.49133 89.8994 6.626C90.6327 5.614 91.9674 5.108 93.9034 5.108C94.7394 5.108 95.4654 5.21067 96.0814 5.416H99.7554V7.154H98.3034C98.6994 7.87267 98.8974 8.628 98.8974 9.42C98.8974 10.1973 98.8241 10.8353 98.6774 11.334C98.5307 11.8327 98.2814 12.3167 97.9294 12.786ZM93.9034 7.066C92.466 7.066 91.7474 7.946 91.7474 9.706C91.7474 11.466 92.466 12.346 93.9034 12.346C95.3554 12.346 96.0814 11.466 96.0814 9.706C96.0814 7.946 95.3554 7.066 93.9034 7.066ZM90.7354 19.342C90.7354 19.87 90.97 20.2073 91.4394 20.354C91.9234 20.5007 92.7154 20.574 93.8154 20.574C94.9154 20.574 95.6927 20.486 96.1474 20.31C96.6167 20.1487 96.8514 19.7893 96.8514 19.232C96.8514 18.4107 96.2794 18 95.1354 18H91.3734C90.948 18.3813 90.7354 18.8287 90.7354 19.342ZM105.302 18H102.354V5.416H103.74L104.906 7.374C105.918 5.93667 107.348 5.18133 109.196 5.108V7.638C107.465 7.682 106.167 8.21 105.302 9.222V18ZM115.735 5.108C118.932 5.108 120.531 6.56733 120.531 9.486V18H118.617L117.781 16.46C116.608 17.692 115.236 18.308 113.667 18.308C112.552 18.308 111.702 18 111.115 17.384C110.543 16.7533 110.257 15.9173 110.257 14.876C110.257 13.82 110.587 12.9693 111.247 12.324C111.907 11.6787 113.139 11.224 114.943 10.96L117.583 10.564V9.508C117.583 8.08533 116.908 7.374 115.559 7.374C114.283 7.374 113.528 8.01933 113.293 9.31L111.005 8.628C111.562 6.28133 113.139 5.108 115.735 5.108ZM114.613 16.152C115.61 16.152 116.6 15.6607 117.583 14.678V12.412L115.471 12.786C114.518 12.9473 113.887 13.204 113.579 13.556C113.271 13.908 113.117 14.304 113.117 14.744C113.117 15.184 113.249 15.5287 113.513 15.778C113.777 16.0273 114.144 16.152 114.613 16.152ZM122.57 7.33V5.416H124.594V3.128L127.542 2.38V5.416H129.94V7.33H127.542V14.436C127.542 15.0667 127.63 15.514 127.806 15.778C127.997 16.042 128.268 16.174 128.62 16.174C128.987 16.174 129.383 16.1153 129.808 15.998L130.182 17.824C129.317 18.1467 128.539 18.308 127.85 18.308C127.175 18.308 126.633 18.2273 126.222 18.066C125.811 17.9047 125.503 17.7213 125.298 17.516C125.093 17.296 124.939 17.0027 124.836 16.636C124.675 16.1227 124.594 15.4847 124.594 14.722V7.33H122.57ZM136.02 18.308C133.438 18.308 132.148 16.9733 132.148 14.304V5.416H135.096V13.82C135.096 14.5827 135.242 15.1473 135.536 15.514C135.844 15.866 136.35 16.042 137.054 16.042C138.051 16.042 138.997 15.5727 139.892 14.634V5.416H142.84V18H140.926L140.09 16.482C138.946 17.6993 137.589 18.308 136.02 18.308ZM146.977 5.416H149.925V18H146.977V5.416ZM148.451 3.92C147.351 3.92 146.801 3.35533 146.801 2.226C146.801 1.082 147.351 0.51 148.451 0.51C149.581 0.51 150.145 1.082 150.145 2.226C150.145 3.35533 149.581 3.92 148.451 3.92ZM152.197 7.33V5.416H154.221V3.128L157.169 2.38V5.416H159.567V7.33H157.169V14.436C157.169 15.0667 157.257 15.514 157.433 15.778C157.624 16.042 157.895 16.174 158.247 16.174C158.614 16.174 159.01 16.1153 159.435 15.998L159.809 17.824C158.944 18.1467 158.166 18.308 157.477 18.308C156.802 18.308 156.26 18.2273 155.849 18.066C155.438 17.9047 155.13 17.7213 154.925 17.516C154.72 17.296 154.566 17.0027 154.463 16.636C154.302 16.1227 154.221 15.4847 154.221 14.722V7.33H152.197ZM170.993 14.48C170.993 16.988 169.233 18.242 165.713 18.242C164.173 18.242 163.029 17.912 162.281 17.252C161.533 16.5773 161.063 15.602 160.873 14.326L163.161 13.974C163.322 15.382 164.195 16.086 165.779 16.086C167.377 16.086 168.177 15.5873 168.177 14.59C168.177 14.1793 168.015 13.8713 167.693 13.666C167.385 13.4607 166.754 13.248 165.801 13.028L164.789 12.786C163.483 12.478 162.545 12.0307 161.973 11.444C161.415 10.8427 161.137 9.97733 161.137 8.848C161.137 6.35467 162.838 5.108 166.241 5.108C167.707 5.108 168.8 5.44533 169.519 6.12C170.252 6.78 170.707 7.748 170.883 9.024L168.595 9.354C168.433 7.96067 167.619 7.264 166.153 7.264C164.701 7.264 163.975 7.76267 163.975 8.76C163.975 9.17067 164.114 9.486 164.393 9.706C164.686 9.91133 165.273 10.1167 166.153 10.322L167.297 10.608C168.602 10.9307 169.541 11.3853 170.113 11.972C170.699 12.544 170.993 13.38 170.993 14.48Z" fill="black"/>
</svg>
