<svg width="811" height="319" viewBox="0 0 811 319" fill="none" xmlns="http://www.w3.org/2000/svg">
<rect x="9" width="793" height="313" fill="#EA1313"/>
<path d="M203.023 99.9531C203.336 102.203 203.727 104.328 204.195 106.328C204.664 108.297 205.242 110.391 205.93 112.609L212.633 134.406H213.617C214.555 132.844 215.57 131.047 216.664 129.016C217.758 126.953 218.773 124.781 219.711 122.5C220.648 120.219 221.43 117.906 222.055 115.562C222.68 113.188 222.992 110.922 222.992 108.766C222.992 107.359 222.836 106.031 222.523 104.781C222.211 103.531 221.695 102.375 220.977 101.312C221.57 100.969 222.242 100.656 222.992 100.375C223.773 100.094 224.539 99.9531 225.289 99.9531C226.977 99.9531 228.18 100.469 228.898 101.5C229.648 102.5 230.023 103.875 230.023 105.625C230.023 107.219 229.711 108.984 229.086 110.922C228.492 112.828 227.695 114.828 226.695 116.922C225.727 119.016 224.617 121.156 223.367 123.344C222.117 125.531 220.852 127.703 219.57 129.859C218.289 131.984 217.039 134.047 215.82 136.047C214.602 138.047 213.539 139.906 212.633 141.625L209.258 142.938L198.43 110.875C198.086 109.844 197.727 108.938 197.352 108.156C197.008 107.375 196.57 106.734 196.039 106.234C195.508 105.703 194.852 105.312 194.07 105.062C193.289 104.781 192.305 104.641 191.117 104.641H190.461V102.438C191.836 102.406 193.023 102.328 194.023 102.203C195.055 102.047 196.023 101.859 196.93 101.641C197.836 101.422 198.758 101.172 199.695 100.891C200.664 100.609 201.773 100.297 203.023 99.9531ZM263.867 117.344C260.523 117.344 257.148 117.219 253.742 116.969C250.336 116.719 246.789 116.422 243.102 116.078C242.914 117.547 242.82 118.953 242.82 120.297C242.852 123.734 243.289 126.562 244.133 128.781C244.977 131 246.086 132.766 247.461 134.078C248.867 135.359 250.461 136.25 252.242 136.75C254.023 137.25 255.883 137.5 257.82 137.5C259.039 137.5 260.195 137.422 261.289 137.266C262.414 137.078 263.539 136.797 264.664 136.422C265.789 136.047 266.93 135.562 268.086 134.969C269.273 134.344 270.523 133.578 271.836 132.672L273.055 134.5C269.93 137.156 266.82 139.234 263.727 140.734C260.664 142.203 257.383 142.938 253.883 142.938C251.07 142.938 248.539 142.422 246.289 141.391C244.07 140.328 242.18 138.922 240.617 137.172C239.086 135.391 237.898 133.344 237.055 131.031C236.242 128.688 235.836 126.234 235.836 123.672C235.836 120.328 236.398 117.219 237.523 114.344C238.68 111.438 240.227 108.922 242.164 106.797C244.133 104.672 246.398 103 248.961 101.781C251.523 100.562 254.211 99.9531 257.023 99.9531C259.867 99.9531 262.227 100.438 264.102 101.406C266.008 102.344 267.523 103.562 268.648 105.062C269.805 106.562 270.617 108.219 271.086 110.031C271.586 111.812 271.836 113.547 271.836 115.234C271.836 115.578 271.836 115.891 271.836 116.172C271.836 116.453 271.805 116.75 271.742 117.062C269.023 117.25 266.398 117.344 263.867 117.344ZM255.383 102.719C253.789 102.719 252.352 103.016 251.07 103.609C249.82 104.203 248.695 105.016 247.695 106.047C246.727 107.047 245.898 108.234 245.211 109.609C244.555 110.953 244.023 112.375 243.617 113.875C245.836 113.938 247.695 113.984 249.195 114.016C250.727 114.047 252.023 114.062 253.086 114.062H257.727C258.82 114.062 259.93 114.047 261.055 114.016C262.18 113.984 263.492 113.938 264.992 113.875V113.406C264.992 111.719 264.758 110.219 264.289 108.906C263.82 107.562 263.164 106.438 262.32 105.531C261.477 104.625 260.461 103.938 259.273 103.469C258.086 102.969 256.789 102.719 255.383 102.719ZM327.148 142C325.492 142.062 323.961 142.109 322.555 142.141C321.148 142.203 319.805 142.281 318.523 142.375C317.273 142.469 316.039 142.594 314.82 142.75C313.633 142.938 312.43 143.203 311.211 143.547C311.492 141.734 311.773 139.688 312.055 137.406C312.367 135.125 312.648 132.828 312.898 130.516C313.18 128.172 313.398 125.891 313.555 123.672C313.711 121.453 313.789 119.5 313.789 117.812C313.789 116.188 313.711 114.594 313.555 113.031C313.43 111.469 313.07 110.078 312.477 108.859C311.914 107.609 311.039 106.609 309.852 105.859C308.664 105.109 307.023 104.734 304.93 104.734C303.742 104.734 302.539 104.953 301.32 105.391C300.102 105.797 298.914 106.328 297.758 106.984C296.633 107.609 295.555 108.312 294.523 109.094C293.523 109.875 292.648 110.609 291.898 111.297C291.805 112.797 291.695 114.391 291.57 116.078C291.477 117.734 291.383 119.391 291.289 121.047C291.227 122.672 291.164 124.266 291.102 125.828C291.039 127.359 291.008 128.781 291.008 130.094C291.008 132.125 291.055 133.766 291.148 135.016C291.273 136.266 291.523 137.25 291.898 137.969C292.305 138.688 292.898 139.172 293.68 139.422C294.461 139.672 295.523 139.797 296.867 139.797H299.211V142C295.836 142 292.898 142.109 290.398 142.328C287.898 142.547 285.523 142.953 283.273 143.547C283.992 138.984 284.555 134.297 284.961 129.484C285.367 124.641 285.57 119.688 285.57 114.625C285.57 113.406 285.523 112.203 285.43 111.016C285.336 109.828 285.039 108.766 284.539 107.828C284.039 106.859 283.273 106.094 282.242 105.531C281.211 104.938 279.758 104.641 277.883 104.641H276.992V102.438C278.398 102.375 279.695 102.312 280.883 102.25C282.07 102.156 283.242 102.031 284.398 101.875C285.586 101.688 286.82 101.453 288.102 101.172C289.383 100.859 290.836 100.453 292.461 99.9531C292.18 101.359 291.883 102.859 291.57 104.453C291.289 106.016 291.07 107.453 290.914 108.766C294.383 105.828 297.586 103.625 300.523 102.156C303.461 100.688 306.445 99.9531 309.477 99.9531C310.445 99.9531 311.539 100.109 312.758 100.422C314.008 100.703 315.18 101.297 316.273 102.203C317.367 103.109 318.289 104.391 319.039 106.047C319.82 107.672 320.211 109.828 320.211 112.516C320.211 114.266 320.133 116.094 319.977 118C319.852 119.906 319.695 121.797 319.508 123.672C319.352 125.516 319.195 127.312 319.039 129.062C318.914 130.781 318.852 132.344 318.852 133.75C318.852 135 318.945 136.016 319.133 136.797C319.352 137.578 319.68 138.203 320.117 138.672C320.586 139.109 321.18 139.406 321.898 139.562C322.648 139.719 323.555 139.797 324.617 139.797H327.148V142ZM337.742 100.891C337.805 98.8281 337.867 96.7031 337.93 94.5156C338.023 92.2969 338.07 89.9844 338.07 87.5781L345.055 86.0312C344.773 88.0625 344.523 90.3594 344.305 92.9219C344.117 95.4531 343.93 98.1094 343.742 100.891C346.836 100.891 349.461 100.797 351.617 100.609C353.805 100.422 355.617 100.203 357.055 99.9531L354.945 104.453H351.898C350.398 104.453 348.977 104.453 347.633 104.453C346.289 104.453 344.883 104.422 343.414 104.359C343.258 106.453 343.117 108.531 342.992 110.594C342.867 112.625 342.758 114.594 342.664 116.5C342.57 118.375 342.492 120.141 342.43 121.797C342.398 123.453 342.383 124.906 342.383 126.156C342.383 128.188 342.477 129.906 342.664 131.312C342.883 132.719 343.227 133.859 343.695 134.734C344.164 135.609 344.789 136.25 345.57 136.656C346.352 137.031 347.336 137.219 348.523 137.219C349.867 137.219 351.305 136.828 352.836 136.047C354.367 135.234 355.711 134.078 356.867 132.578L358.414 134.312C357.383 135.531 356.32 136.672 355.227 137.734C354.133 138.766 352.992 139.672 351.805 140.453C350.648 141.203 349.461 141.797 348.242 142.234C347.023 142.703 345.773 142.938 344.492 142.938C342.805 142.938 341.414 142.625 340.32 142C339.258 141.406 338.414 140.578 337.789 139.516C337.164 138.453 336.727 137.203 336.477 135.766C336.258 134.328 336.148 132.766 336.148 131.078C336.148 127.828 336.32 123.984 336.664 119.547C337.008 115.078 337.336 109.922 337.648 104.078C336.336 103.984 335.023 103.875 333.711 103.75C332.398 103.594 330.977 103.391 329.445 103.141L329.633 100.891H337.742ZM390.805 117.344C387.461 117.344 384.086 117.219 380.68 116.969C377.273 116.719 373.727 116.422 370.039 116.078C369.852 117.547 369.758 118.953 369.758 120.297C369.789 123.734 370.227 126.562 371.07 128.781C371.914 131 373.023 132.766 374.398 134.078C375.805 135.359 377.398 136.25 379.18 136.75C380.961 137.25 382.82 137.5 384.758 137.5C385.977 137.5 387.133 137.422 388.227 137.266C389.352 137.078 390.477 136.797 391.602 136.422C392.727 136.047 393.867 135.562 395.023 134.969C396.211 134.344 397.461 133.578 398.773 132.672L399.992 134.5C396.867 137.156 393.758 139.234 390.664 140.734C387.602 142.203 384.32 142.938 380.82 142.938C378.008 142.938 375.477 142.422 373.227 141.391C371.008 140.328 369.117 138.922 367.555 137.172C366.023 135.391 364.836 133.344 363.992 131.031C363.18 128.688 362.773 126.234 362.773 123.672C362.773 120.328 363.336 117.219 364.461 114.344C365.617 111.438 367.164 108.922 369.102 106.797C371.07 104.672 373.336 103 375.898 101.781C378.461 100.562 381.148 99.9531 383.961 99.9531C386.805 99.9531 389.164 100.438 391.039 101.406C392.945 102.344 394.461 103.562 395.586 105.062C396.742 106.562 397.555 108.219 398.023 110.031C398.523 111.812 398.773 113.547 398.773 115.234C398.773 115.578 398.773 115.891 398.773 116.172C398.773 116.453 398.742 116.75 398.68 117.062C395.961 117.25 393.336 117.344 390.805 117.344ZM382.32 102.719C380.727 102.719 379.289 103.016 378.008 103.609C376.758 104.203 375.633 105.016 374.633 106.047C373.664 107.047 372.836 108.234 372.148 109.609C371.492 110.953 370.961 112.375 370.555 113.875C372.773 113.938 374.633 113.984 376.133 114.016C377.664 114.047 378.961 114.062 380.023 114.062H384.664C385.758 114.062 386.867 114.047 387.992 114.016C389.117 113.984 390.43 113.938 391.93 113.875V113.406C391.93 111.719 391.695 110.219 391.227 108.906C390.758 107.562 390.102 106.438 389.258 105.531C388.414 104.625 387.398 103.938 386.211 103.469C385.023 102.969 383.727 102.719 382.32 102.719ZM433.32 103.984C432.008 103.891 430.695 103.781 429.383 103.656C428.102 103.5 426.789 103.328 425.445 103.141L425.633 100.891H433.508C433.508 100.734 433.508 100.375 433.508 99.8125C433.508 99.25 433.508 98.5938 433.508 97.8438C433.539 97.0625 433.555 96.25 433.555 95.4062C433.586 94.5312 433.617 93.7031 433.648 92.9219C433.711 91.4531 433.977 89.8438 434.445 88.0938C434.914 86.3438 435.555 84.5938 436.367 82.8438C437.18 81.0938 438.133 79.3906 439.227 77.7344C440.352 76.0781 441.57 74.625 442.883 73.375C444.227 72.0938 445.648 71.0781 447.148 70.3281C448.68 69.5469 450.242 69.1562 451.836 69.1562C452.992 69.1562 453.867 69.4375 454.461 70C455.086 70.5625 455.398 71.3281 455.398 72.2969C455.398 73.0156 455.258 73.75 454.977 74.5C454.695 75.25 454.383 75.7969 454.039 76.1406C453.07 75.8906 452.102 75.6875 451.133 75.5312C450.195 75.375 449.273 75.2969 448.367 75.2969C446.898 75.2969 445.648 75.5781 444.617 76.1406C443.617 76.7031 442.773 77.8125 442.086 79.4688C441.398 81.125 440.852 83.4531 440.445 86.4531C440.039 89.4531 439.695 93.4062 439.414 98.3125L439.273 100.891C441.398 100.891 443.602 100.859 445.883 100.797C448.195 100.703 450.57 100.484 453.008 100.141L450.992 104.453H447.898C446.398 104.453 444.93 104.453 443.492 104.453C442.055 104.453 440.617 104.422 439.18 104.359L438.664 113.266C438.477 116.453 438.367 119.516 438.336 122.453C438.305 125.391 438.289 127.875 438.289 129.906C438.289 131.938 438.336 133.594 438.43 134.875C438.523 136.156 438.758 137.156 439.133 137.875C439.539 138.594 440.148 139.094 440.961 139.375C441.805 139.656 442.961 139.797 444.43 139.797H446.445V142C444.945 142.062 443.539 142.109 442.227 142.141C440.914 142.172 439.633 142.234 438.383 142.328C437.133 142.422 435.867 142.547 434.586 142.703C433.305 142.891 431.945 143.172 430.508 143.547C431.039 138.016 431.523 132.719 431.961 127.656C432.43 122.594 432.758 117.75 432.945 113.125L433.32 103.984ZM465.945 131.266C465.945 133.047 466.008 134.5 466.133 135.625C466.289 136.75 466.586 137.625 467.023 138.25C467.461 138.844 468.086 139.25 468.898 139.469C469.711 139.688 470.773 139.797 472.086 139.797H474.102V142C472.602 142.062 471.195 142.109 469.883 142.141C468.57 142.172 467.289 142.234 466.039 142.328C464.789 142.422 463.523 142.547 462.242 142.703C460.961 142.891 459.602 143.172 458.164 143.547C458.539 139.672 458.883 135.703 459.195 131.641C459.539 127.547 459.852 123.516 460.133 119.547C460.414 115.547 460.648 111.672 460.836 107.922C461.055 104.172 461.227 100.703 461.352 97.5156C461.508 94.2969 461.617 91.4219 461.68 88.8906C461.773 86.3594 461.82 84.3125 461.82 82.75C461.82 80.9062 461.727 79.4062 461.539 78.25C461.352 77.0938 461.008 76.1875 460.508 75.5312C460.008 74.875 459.305 74.4375 458.398 74.2188C457.523 73.9688 456.383 73.8438 454.977 73.8438H453.242V71.6406C454.742 71.5781 456.148 71.4844 457.461 71.3594C458.805 71.2031 460.102 71.0312 461.352 70.8438C462.633 70.625 463.914 70.375 465.195 70.0938C466.477 69.8125 467.836 69.5 469.273 69.1562C468.898 73.125 468.555 77.2188 468.242 81.4375C467.93 85.6562 467.648 89.8281 467.398 93.9531C467.148 98.0781 466.93 102.078 466.742 105.953C466.555 109.797 466.398 113.359 466.273 116.641C466.18 119.891 466.102 122.781 466.039 125.312C465.977 127.844 465.945 129.828 465.945 131.266ZM477.852 134.688C477.852 132.844 478.32 131.25 479.258 129.906C480.227 128.562 481.461 127.406 482.961 126.438C484.492 125.469 486.195 124.672 488.07 124.047C489.945 123.422 491.82 122.922 493.695 122.547C495.57 122.172 497.336 121.906 498.992 121.75C500.68 121.562 502.055 121.438 503.117 121.375C503.273 119.969 503.367 118.609 503.398 117.297C503.461 115.984 503.492 114.75 503.492 113.594C503.492 112.125 503.383 110.719 503.164 109.375C502.945 108.031 502.523 106.844 501.898 105.812C501.273 104.781 500.398 103.969 499.273 103.375C498.18 102.75 496.742 102.438 494.961 102.438C493.711 102.438 492.555 102.672 491.492 103.141C490.43 103.609 489.508 104.25 488.727 105.062C487.977 105.844 487.383 106.781 486.945 107.875C486.539 108.938 486.336 110.078 486.336 111.297C486.336 111.766 486.367 112.25 486.43 112.75C486.523 113.219 486.648 113.719 486.805 114.25C486.461 114.656 485.977 114.969 485.352 115.188C484.758 115.406 484.148 115.516 483.523 115.516C483.055 115.516 482.602 115.453 482.164 115.328C481.727 115.172 481.336 114.938 480.992 114.625C480.648 114.312 480.367 113.906 480.148 113.406C479.961 112.906 479.867 112.297 479.867 111.578C479.867 109.828 480.461 108.234 481.648 106.797C482.867 105.359 484.383 104.141 486.195 103.141C488.039 102.109 490.039 101.328 492.195 100.797C494.352 100.234 496.398 99.9531 498.336 99.9531C502.023 99.9531 504.898 100.797 506.961 102.484C509.055 104.172 510.102 106.969 510.102 110.875C510.102 112.562 510.023 114.422 509.867 116.453C509.742 118.453 509.586 120.438 509.398 122.406C509.211 124.375 509.039 126.25 508.883 128.031C508.758 129.781 508.695 131.234 508.695 132.391C508.695 134.359 508.93 135.891 509.398 136.984C509.898 138.078 510.648 138.625 511.648 138.625C512.242 138.625 512.836 138.453 513.43 138.109C514.023 137.734 514.586 137.312 515.117 136.844C515.648 136.344 516.117 135.844 516.523 135.344C516.93 134.812 517.258 134.406 517.508 134.125L519.242 135.578C518.148 137.109 517.133 138.359 516.195 139.328C515.258 140.266 514.367 141.016 513.523 141.578C512.68 142.109 511.867 142.469 511.086 142.656C510.305 142.844 509.539 142.938 508.789 142.938C507.633 142.938 506.633 142.703 505.789 142.234C504.945 141.797 504.242 141.203 503.68 140.453C503.148 139.703 502.727 138.844 502.414 137.875C502.133 136.906 501.977 135.906 501.945 134.875C501.32 135.906 500.586 136.906 499.742 137.875C498.898 138.844 497.914 139.703 496.789 140.453C495.664 141.203 494.383 141.797 492.945 142.234C491.508 142.703 489.898 142.938 488.117 142.938C485.992 142.938 484.258 142.656 482.914 142.094C481.57 141.562 480.523 140.891 479.773 140.078C479.023 139.234 478.508 138.328 478.227 137.359C477.977 136.391 477.852 135.5 477.852 134.688ZM490.555 139.516C492.555 139.516 494.258 139.078 495.664 138.203C497.102 137.297 498.289 136.109 499.227 134.641C500.195 133.172 500.961 131.5 501.523 129.625C502.117 127.719 502.555 125.766 502.836 123.766C501.773 123.859 500.586 123.969 499.273 124.094C497.961 124.219 496.633 124.422 495.289 124.703C493.977 124.953 492.68 125.312 491.398 125.781C490.148 126.219 489.023 126.797 488.023 127.516C487.055 128.234 486.273 129.109 485.68 130.141C485.086 131.141 484.789 132.344 484.789 133.75C484.789 134.938 484.977 135.906 485.352 136.656C485.758 137.375 486.258 137.953 486.852 138.391C487.445 138.828 488.07 139.125 488.727 139.281C489.383 139.438 489.992 139.516 490.555 139.516ZM543.758 112.422C543.852 111.891 543.93 111.375 543.992 110.875C544.086 110.344 544.133 109.844 544.133 109.375C544.133 107.344 543.602 105.719 542.539 104.5C541.508 103.25 539.867 102.625 537.617 102.625C536.367 102.625 535.242 102.812 534.242 103.188C533.242 103.531 532.383 104.016 531.664 104.641C530.977 105.234 530.445 105.953 530.07 106.797C529.695 107.609 529.508 108.469 529.508 109.375C529.508 110.75 529.82 111.906 530.445 112.844C531.102 113.75 531.93 114.547 532.93 115.234C533.93 115.922 535.039 116.547 536.258 117.109C537.477 117.672 538.68 118.266 539.867 118.891C541.023 119.516 542.195 120.188 543.383 120.906C544.602 121.594 545.695 122.406 546.664 123.344C547.664 124.281 548.461 125.359 549.055 126.578C549.68 127.797 549.992 129.219 549.992 130.844C549.992 132.312 549.695 133.766 549.102 135.203C548.508 136.641 547.555 137.938 546.242 139.094C544.93 140.25 543.227 141.188 541.133 141.906C539.039 142.594 536.508 142.938 533.539 142.938C531.758 142.938 530.117 142.781 528.617 142.469C527.148 142.156 525.883 141.703 524.82 141.109C523.758 140.516 522.93 139.781 522.336 138.906C521.742 138.031 521.445 137.047 521.445 135.953C521.445 134.266 522.008 132.938 523.133 131.969C524.258 130.969 525.68 130.438 527.398 130.375V131.266C527.398 134.109 528.18 136.359 529.742 138.016C531.336 139.641 533.445 140.453 536.07 140.453C537.039 140.453 537.992 140.297 538.93 139.984C539.867 139.672 540.711 139.203 541.461 138.578C542.211 137.953 542.805 137.156 543.242 136.188C543.711 135.188 543.945 134.016 543.945 132.672C543.945 131.328 543.602 130.156 542.914 129.156C542.227 128.156 541.352 127.281 540.289 126.531C539.258 125.781 538.133 125.125 536.914 124.562C535.695 123.969 534.555 123.406 533.492 122.875L531.852 122.031C530.633 121.406 529.523 120.781 528.523 120.156C527.555 119.531 526.727 118.844 526.039 118.094C525.352 117.312 524.82 116.422 524.445 115.422C524.07 114.391 523.883 113.172 523.883 111.766C523.883 110.141 524.117 108.734 524.586 107.547C525.086 106.328 525.742 105.281 526.555 104.406C527.367 103.531 528.305 102.812 529.367 102.25C530.43 101.656 531.523 101.203 532.648 100.891C533.773 100.547 534.898 100.312 536.023 100.188C537.148 100.031 538.18 99.9531 539.117 99.9531C540.555 99.9531 541.945 100.094 543.289 100.375C544.664 100.625 545.883 101.031 546.945 101.594C548.008 102.156 548.852 102.891 549.477 103.797C550.133 104.703 550.461 105.797 550.461 107.078C550.461 107.766 550.32 108.438 550.039 109.094C549.758 109.719 549.336 110.281 548.773 110.781C548.242 111.281 547.555 111.688 546.711 112C545.867 112.281 544.883 112.422 543.758 112.422ZM563.492 82.75C563.492 80.9062 563.398 79.4062 563.211 78.25C563.055 77.0938 562.727 76.1875 562.227 75.5312C561.727 74.875 561.023 74.4375 560.117 74.2188C559.242 73.9688 558.102 73.8438 556.695 73.8438H554.961V71.6406C556.336 71.5781 557.617 71.5 558.805 71.4062C559.992 71.2812 561.195 71.125 562.414 70.9375C563.664 70.75 564.977 70.5156 566.352 70.2344C567.727 69.9531 569.273 69.5938 570.992 69.1562C570.867 70.3438 570.727 71.8281 570.57 73.6094C570.414 75.3906 570.242 77.3594 570.055 79.5156C569.898 81.6719 569.727 83.9688 569.539 86.4062C569.352 88.8438 569.18 91.3125 569.023 93.8125C568.867 96.2812 568.711 98.75 568.555 101.219C568.43 103.656 568.32 105.953 568.227 108.109C569.945 106.703 571.555 105.5 573.055 104.5C574.586 103.469 576.055 102.625 577.461 101.969C578.898 101.281 580.32 100.781 581.727 100.469C583.133 100.125 584.586 99.9531 586.086 99.9531C587.055 99.9531 588.148 100.109 589.367 100.422C590.617 100.703 591.789 101.297 592.883 102.203C593.977 103.109 594.898 104.391 595.648 106.047C596.43 107.672 596.82 109.828 596.82 112.516C596.82 114.266 596.742 116.094 596.586 118C596.461 119.906 596.305 121.797 596.117 123.672C595.961 125.516 595.805 127.312 595.648 129.062C595.523 130.781 595.461 132.344 595.461 133.75C595.461 134.969 595.555 135.969 595.742 136.75C595.961 137.5 596.289 138.109 596.727 138.578C597.195 139.016 597.789 139.312 598.508 139.469C599.227 139.625 600.102 139.703 601.133 139.703H603.711V142C602.086 142.062 600.57 142.109 599.164 142.141C597.758 142.203 596.414 142.281 595.133 142.375C593.852 142.469 592.602 142.594 591.383 142.75C590.195 142.938 588.992 143.203 587.773 143.547C588.055 141.734 588.352 139.688 588.664 137.406C588.977 135.125 589.258 132.828 589.508 130.516C589.789 128.172 590.008 125.891 590.164 123.672C590.32 121.453 590.398 119.5 590.398 117.812C590.398 116.188 590.32 114.594 590.164 113.031C590.039 111.469 589.68 110.078 589.086 108.859C588.523 107.609 587.648 106.609 586.461 105.859C585.273 105.109 583.633 104.734 581.539 104.734C580.352 104.734 579.117 104.953 577.836 105.391C576.586 105.828 575.367 106.375 574.18 107.031C572.992 107.688 571.867 108.422 570.805 109.234C569.773 110.047 568.883 110.828 568.133 111.578C568.039 113.078 567.945 114.656 567.852 116.312C567.789 117.938 567.742 119.562 567.711 121.188C567.68 122.781 567.648 124.344 567.617 125.875C567.617 127.375 567.617 128.781 567.617 130.094C567.617 132.125 567.664 133.766 567.758 135.016C567.883 136.266 568.133 137.25 568.508 137.969C568.914 138.688 569.508 139.172 570.289 139.422C571.07 139.672 572.133 139.797 573.477 139.797H575.773V142C574.086 142 572.523 142.016 571.086 142.047C569.648 142.109 568.273 142.203 566.961 142.328C565.68 142.453 564.445 142.609 563.258 142.797C562.102 143.016 560.961 143.266 559.836 143.547C560.273 139.203 560.664 134.906 561.008 130.656C561.383 126.375 561.711 122.25 561.992 118.281C562.273 114.281 562.508 110.484 562.695 106.891C562.883 103.266 563.039 99.9219 563.164 96.8594C563.289 93.7969 563.367 91.0781 563.398 88.7031C563.461 86.2969 563.492 84.3125 563.492 82.75ZM209.047 244.973C209.656 245.16 210.266 245.312 210.875 245.43C211.461 245.547 212.094 245.605 212.773 245.605C213.969 245.605 214.93 245.465 215.656 245.184C216.406 244.902 216.992 244.434 217.414 243.777C217.836 243.121 218.117 242.242 218.258 241.141C218.422 240.062 218.527 238.727 218.574 237.133C218.645 234.32 218.703 231.824 218.75 229.645C218.82 227.441 218.891 225.496 218.961 223.809C219.031 222.098 219.09 220.609 219.137 219.344C219.184 218.055 219.23 216.93 219.277 215.969C219.324 215.008 219.359 214.164 219.383 213.438C219.406 212.688 219.418 212.008 219.418 211.398C219.418 210.273 219.348 209.254 219.207 208.34C219.09 207.426 218.82 206.652 218.398 206.02C218 205.363 217.414 204.859 216.641 204.508C215.867 204.156 214.848 203.98 213.582 203.98H212.984V202.328C215.352 202.258 217.578 202.047 219.664 201.695C221.75 201.344 223.684 200.934 225.465 200.465C224.668 205.363 224.164 210.215 223.953 215.02L223.18 233.301C223.133 234.449 222.934 235.68 222.582 236.992C222.23 238.305 221.762 239.617 221.176 240.93C220.613 242.266 219.945 243.543 219.172 244.762C218.422 246.004 217.613 247.094 216.746 248.031C215.902 248.992 215.023 249.754 214.109 250.316C213.219 250.879 212.34 251.16 211.473 251.16C210.418 251.16 209.609 250.855 209.047 250.246C208.484 249.66 208.203 248.934 208.203 248.066C208.203 247.48 208.285 246.918 208.449 246.379C208.59 245.863 208.789 245.395 209.047 244.973ZM222.301 192.168C221.34 192.168 220.531 191.875 219.875 191.289C219.219 190.68 218.891 189.754 218.891 188.512C218.891 187.973 218.973 187.469 219.137 187C219.301 186.508 219.535 186.086 219.84 185.734C220.168 185.359 220.555 185.066 221 184.855C221.445 184.645 221.949 184.539 222.512 184.539C223.402 184.539 224.176 184.855 224.832 185.488C225.488 186.121 225.816 187.035 225.816 188.23C225.816 188.746 225.734 189.25 225.57 189.742C225.406 190.211 225.172 190.633 224.867 191.008C224.586 191.359 224.223 191.641 223.777 191.852C223.355 192.062 222.863 192.168 222.301 192.168ZM230.141 202.328C232.25 202.258 234.324 202.059 236.363 201.73C238.402 201.402 240.336 200.98 242.164 200.465C241.672 203.582 241.191 206.746 240.723 209.957C240.254 213.168 240.02 216.461 240.02 219.836C240.02 221.148 240.102 222.367 240.266 223.492C240.453 224.617 240.793 225.602 241.285 226.445C241.801 227.266 242.516 227.922 243.43 228.414C244.344 228.883 245.539 229.117 247.016 229.117C247.812 229.117 248.656 228.953 249.547 228.625C250.438 228.297 251.316 227.887 252.184 227.395C253.051 226.879 253.871 226.328 254.645 225.742C255.418 225.156 256.086 224.605 256.648 224.09C256.789 221.91 256.918 219.719 257.035 217.516C257.152 215.312 257.211 213.039 257.211 210.695C257.211 209.594 257.152 208.633 257.035 207.812C256.941 206.969 256.695 206.266 256.297 205.703C255.898 205.141 255.312 204.719 254.539 204.438C253.789 204.133 252.746 203.98 251.41 203.98H250.883V202.328C253.391 202.211 255.617 202 257.562 201.695C259.508 201.391 261.359 200.98 263.117 200.465C263 201.004 262.871 201.754 262.73 202.715C262.613 203.676 262.484 204.777 262.344 206.02C262.227 207.262 262.109 208.598 261.992 210.027C261.875 211.457 261.77 212.922 261.676 214.422C261.582 215.898 261.512 217.363 261.465 218.816C261.418 220.27 261.395 221.641 261.395 222.93C261.395 224.008 261.441 225.004 261.535 225.918C261.652 226.832 261.898 227.617 262.273 228.273C262.672 228.93 263.246 229.445 263.996 229.82C264.746 230.172 265.777 230.348 267.09 230.348H267.828V232C266.445 232.047 265.203 232.094 264.102 232.141C263 232.188 261.992 232.246 261.078 232.316C260.164 232.387 259.32 232.48 258.547 232.598C257.773 232.738 257.023 232.926 256.297 233.16C256.391 232.645 256.496 232.082 256.613 231.473C256.73 230.84 256.836 230.207 256.93 229.574C257.023 228.941 257.105 228.332 257.176 227.746C257.27 227.137 257.34 226.586 257.387 226.094C254.668 228.508 252.148 230.219 249.828 231.227C247.531 232.211 245.434 232.703 243.535 232.703C242.293 232.703 241.168 232.504 240.16 232.105C239.176 231.73 238.332 231.145 237.629 230.348C236.926 229.527 236.375 228.508 235.977 227.289C235.602 226.047 235.414 224.57 235.414 222.859C235.414 221.711 235.449 220.492 235.52 219.203C235.613 217.891 235.707 216.602 235.801 215.336C235.895 214.047 235.977 212.816 236.047 211.645C236.141 210.473 236.188 209.43 236.188 208.516C236.188 206.898 235.789 205.738 234.992 205.035C234.219 204.332 232.824 203.98 230.809 203.98H230.141V202.328ZM287.621 209.816C287.691 209.418 287.75 209.031 287.797 208.656C287.867 208.258 287.902 207.883 287.902 207.531C287.902 206.008 287.504 204.789 286.707 203.875C285.934 202.938 284.703 202.469 283.016 202.469C282.078 202.469 281.234 202.609 280.484 202.891C279.734 203.148 279.09 203.512 278.551 203.98C278.035 204.426 277.637 204.965 277.355 205.598C277.074 206.207 276.934 206.852 276.934 207.531C276.934 208.562 277.168 209.43 277.637 210.133C278.129 210.812 278.75 211.41 279.5 211.926C280.25 212.441 281.082 212.91 281.996 213.332C282.91 213.754 283.812 214.199 284.703 214.668C285.57 215.137 286.449 215.641 287.34 216.18C288.254 216.695 289.074 217.305 289.801 218.008C290.551 218.711 291.148 219.52 291.594 220.434C292.062 221.348 292.297 222.414 292.297 223.633C292.297 224.734 292.074 225.824 291.629 226.902C291.184 227.98 290.469 228.953 289.484 229.82C288.5 230.688 287.223 231.391 285.652 231.93C284.082 232.445 282.184 232.703 279.957 232.703C278.621 232.703 277.391 232.586 276.266 232.352C275.164 232.117 274.215 231.777 273.418 231.332C272.621 230.887 272 230.336 271.555 229.68C271.109 229.023 270.887 228.285 270.887 227.465C270.887 226.199 271.309 225.203 272.152 224.477C272.996 223.727 274.062 223.328 275.352 223.281V223.949C275.352 226.082 275.938 227.77 277.109 229.012C278.305 230.23 279.887 230.84 281.855 230.84C282.582 230.84 283.297 230.723 284 230.488C284.703 230.254 285.336 229.902 285.898 229.434C286.461 228.965 286.906 228.367 287.234 227.641C287.586 226.891 287.762 226.012 287.762 225.004C287.762 223.996 287.504 223.117 286.988 222.367C286.473 221.617 285.816 220.961 285.02 220.398C284.246 219.836 283.402 219.344 282.488 218.922C281.574 218.477 280.719 218.055 279.922 217.656L278.691 217.023C277.777 216.555 276.945 216.086 276.195 215.617C275.469 215.148 274.848 214.633 274.332 214.07C273.816 213.484 273.418 212.816 273.137 212.066C272.855 211.293 272.715 210.379 272.715 209.324C272.715 208.105 272.891 207.051 273.242 206.16C273.617 205.246 274.109 204.461 274.719 203.805C275.328 203.148 276.031 202.609 276.828 202.188C277.625 201.742 278.445 201.402 279.289 201.168C280.133 200.91 280.977 200.734 281.82 200.641C282.664 200.523 283.438 200.465 284.141 200.465C285.219 200.465 286.262 200.57 287.27 200.781C288.301 200.969 289.215 201.273 290.012 201.695C290.809 202.117 291.441 202.668 291.91 203.348C292.402 204.027 292.648 204.848 292.648 205.809C292.648 206.324 292.543 206.828 292.332 207.32C292.121 207.789 291.805 208.211 291.383 208.586C290.984 208.961 290.469 209.266 289.836 209.5C289.203 209.711 288.465 209.816 287.621 209.816ZM327.559 202.609C327.418 203.805 327.266 205.387 327.102 207.355C326.961 209.301 326.82 211.445 326.68 213.789C326.539 216.133 326.41 218.582 326.293 221.137C326.176 223.691 326.07 226.164 325.977 228.555C325.883 230.945 325.812 233.148 325.766 235.164C325.719 237.203 325.695 238.879 325.695 240.191C325.695 241.598 325.719 242.816 325.766 243.848C325.812 244.879 325.988 245.723 326.293 246.379C326.598 247.059 327.078 247.551 327.734 247.855C328.414 248.184 329.363 248.348 330.582 248.348H331.812V250.07H330.652C329.785 250.07 328.953 250.07 328.156 250.07C327.383 250.094 326.574 250.141 325.73 250.211C324.887 250.281 323.984 250.387 323.023 250.527C322.086 250.668 321.031 250.879 319.859 251.16C320.023 250.504 320.176 249.555 320.316 248.312C320.457 247.07 320.586 245.676 320.703 244.129C320.844 242.582 320.961 240.965 321.055 239.277C321.172 237.59 321.266 235.961 321.336 234.391C321.406 232.82 321.465 231.379 321.512 230.066C321.559 228.754 321.582 227.723 321.582 226.973C320.129 228.121 318.805 229.07 317.609 229.82C316.414 230.547 315.312 231.133 314.305 231.578C313.32 232 312.395 232.293 311.527 232.457C310.684 232.621 309.863 232.703 309.066 232.703C307.402 232.703 305.902 232.398 304.566 231.789C303.254 231.156 302.129 230.277 301.191 229.152C300.277 228.004 299.574 226.633 299.082 225.039C298.59 223.445 298.344 221.688 298.344 219.766C298.344 217.867 298.59 216.074 299.082 214.387C299.598 212.699 300.301 211.141 301.191 209.711C302.082 208.281 303.125 206.992 304.32 205.844C305.539 204.695 306.84 203.723 308.223 202.926C309.629 202.129 311.094 201.52 312.617 201.098C314.141 200.676 315.664 200.465 317.188 200.465C319.156 200.465 321.008 200.641 322.742 200.992C324.5 201.32 326.105 201.859 327.559 202.609ZM322.461 203.91C321.945 203.676 321.453 203.465 320.984 203.277C320.539 203.066 320.07 202.902 319.578 202.785C319.109 202.668 318.605 202.574 318.066 202.504C317.551 202.434 316.977 202.398 316.344 202.398C314.656 202.398 313.039 202.82 311.492 203.664C309.969 204.484 308.621 205.609 307.449 207.039C306.277 208.469 305.34 210.145 304.637 212.066C303.934 213.988 303.582 216.051 303.582 218.254C303.582 221.816 304.32 224.5 305.797 226.305C307.273 228.086 309.395 228.977 312.16 228.977C313.004 228.977 313.871 228.836 314.762 228.555C315.652 228.25 316.508 227.875 317.328 227.43C318.172 226.961 318.957 226.457 319.684 225.918C320.41 225.379 321.043 224.863 321.582 224.371L322.461 203.91ZM332.586 202.328C334.695 202.258 336.77 202.059 338.809 201.73C340.848 201.402 342.781 200.98 344.609 200.465C344.117 203.582 343.637 206.746 343.168 209.957C342.699 213.168 342.465 216.461 342.465 219.836C342.465 221.148 342.547 222.367 342.711 223.492C342.898 224.617 343.238 225.602 343.73 226.445C344.246 227.266 344.961 227.922 345.875 228.414C346.789 228.883 347.984 229.117 349.461 229.117C350.258 229.117 351.102 228.953 351.992 228.625C352.883 228.297 353.762 227.887 354.629 227.395C355.496 226.879 356.316 226.328 357.09 225.742C357.863 225.156 358.531 224.605 359.094 224.09C359.234 221.91 359.363 219.719 359.48 217.516C359.598 215.312 359.656 213.039 359.656 210.695C359.656 209.594 359.598 208.633 359.48 207.812C359.387 206.969 359.141 206.266 358.742 205.703C358.344 205.141 357.758 204.719 356.984 204.438C356.234 204.133 355.191 203.98 353.855 203.98H353.328V202.328C355.836 202.211 358.062 202 360.008 201.695C361.953 201.391 363.805 200.98 365.562 200.465C365.445 201.004 365.316 201.754 365.176 202.715C365.059 203.676 364.93 204.777 364.789 206.02C364.672 207.262 364.555 208.598 364.438 210.027C364.32 211.457 364.215 212.922 364.121 214.422C364.027 215.898 363.957 217.363 363.91 218.816C363.863 220.27 363.84 221.641 363.84 222.93C363.84 224.008 363.887 225.004 363.98 225.918C364.098 226.832 364.344 227.617 364.719 228.273C365.117 228.93 365.691 229.445 366.441 229.82C367.191 230.172 368.223 230.348 369.535 230.348H370.273V232C368.891 232.047 367.648 232.094 366.547 232.141C365.445 232.188 364.438 232.246 363.523 232.316C362.609 232.387 361.766 232.48 360.992 232.598C360.219 232.738 359.469 232.926 358.742 233.16C358.836 232.645 358.941 232.082 359.059 231.473C359.176 230.84 359.281 230.207 359.375 229.574C359.469 228.941 359.551 228.332 359.621 227.746C359.715 227.137 359.785 226.586 359.832 226.094C357.113 228.508 354.594 230.219 352.273 231.227C349.977 232.211 347.879 232.703 345.98 232.703C344.738 232.703 343.613 232.504 342.605 232.105C341.621 231.73 340.777 231.145 340.074 230.348C339.371 229.527 338.82 228.508 338.422 227.289C338.047 226.047 337.859 224.57 337.859 222.859C337.859 221.711 337.895 220.492 337.965 219.203C338.059 217.891 338.152 216.602 338.246 215.336C338.34 214.047 338.422 212.816 338.492 211.645C338.586 210.473 338.633 209.43 338.633 208.516C338.633 206.898 338.234 205.738 337.438 205.035C336.664 204.332 335.27 203.98 333.254 203.98H332.586V202.328ZM374.211 193.855C374.82 193.41 375.418 192.93 376.004 192.414C376.59 191.898 377.105 191.348 377.551 190.762C377.996 190.152 378.348 189.52 378.605 188.863C378.887 188.184 379.027 187.469 379.027 186.719C379.027 185.945 378.898 185.254 378.641 184.645C378.406 184.035 378.09 183.508 377.691 183.062C377.293 182.594 376.848 182.207 376.355 181.902C375.863 181.574 375.359 181.305 374.844 181.094C374.844 180.672 374.914 180.25 375.055 179.828C375.219 179.383 375.465 178.984 375.793 178.633C376.121 178.258 376.52 177.953 376.988 177.719C377.48 177.484 378.066 177.367 378.746 177.367C379.309 177.367 379.859 177.473 380.398 177.684C380.938 177.895 381.418 178.234 381.84 178.703C382.285 179.148 382.637 179.734 382.895 180.461C383.152 181.164 383.281 182.02 383.281 183.027C383.281 183.895 383.152 184.844 382.895 185.875C382.66 186.883 382.238 187.926 381.629 189.004C381.02 190.082 380.199 191.172 379.168 192.273C378.16 193.352 376.871 194.383 375.301 195.367L374.211 193.855ZM383.949 226.516C383.949 225.133 384.301 223.938 385.004 222.93C385.73 221.922 386.656 221.055 387.781 220.328C388.93 219.602 390.207 219.004 391.613 218.535C393.02 218.066 394.426 217.691 395.832 217.41C397.238 217.129 398.562 216.93 399.805 216.812C401.07 216.672 402.102 216.578 402.898 216.531C403.016 215.477 403.086 214.457 403.109 213.473C403.156 212.488 403.18 211.562 403.18 210.695C403.18 209.594 403.098 208.539 402.934 207.531C402.77 206.523 402.453 205.633 401.984 204.859C401.516 204.086 400.859 203.477 400.016 203.031C399.195 202.562 398.117 202.328 396.781 202.328C395.844 202.328 394.977 202.504 394.18 202.855C393.383 203.207 392.691 203.688 392.105 204.297C391.543 204.883 391.098 205.586 390.77 206.406C390.465 207.203 390.312 208.059 390.312 208.973C390.312 209.324 390.336 209.688 390.383 210.062C390.453 210.414 390.547 210.789 390.664 211.188C390.406 211.492 390.043 211.727 389.574 211.891C389.129 212.055 388.672 212.137 388.203 212.137C387.852 212.137 387.512 212.09 387.184 211.996C386.855 211.879 386.562 211.703 386.305 211.469C386.047 211.234 385.836 210.93 385.672 210.555C385.531 210.18 385.461 209.723 385.461 209.184C385.461 207.871 385.906 206.676 386.797 205.598C387.711 204.52 388.848 203.605 390.207 202.855C391.59 202.082 393.09 201.496 394.707 201.098C396.324 200.676 397.859 200.465 399.312 200.465C402.078 200.465 404.234 201.098 405.781 202.363C407.352 203.629 408.137 205.727 408.137 208.656C408.137 209.922 408.078 211.316 407.961 212.84C407.867 214.34 407.75 215.828 407.609 217.305C407.469 218.781 407.34 220.188 407.223 221.523C407.129 222.836 407.082 223.926 407.082 224.793C407.082 226.27 407.258 227.418 407.609 228.238C407.984 229.059 408.547 229.469 409.297 229.469C409.742 229.469 410.188 229.34 410.633 229.082C411.078 228.801 411.5 228.484 411.898 228.133C412.297 227.758 412.648 227.383 412.953 227.008C413.258 226.609 413.504 226.305 413.691 226.094L414.992 227.184C414.172 228.332 413.41 229.27 412.707 229.996C412.004 230.699 411.336 231.262 410.703 231.684C410.07 232.082 409.461 232.352 408.875 232.492C408.289 232.633 407.715 232.703 407.152 232.703C406.285 232.703 405.535 232.527 404.902 232.176C404.27 231.848 403.742 231.402 403.32 230.84C402.922 230.277 402.605 229.633 402.371 228.906C402.16 228.18 402.043 227.43 402.02 226.656C401.551 227.43 401 228.18 400.367 228.906C399.734 229.633 398.996 230.277 398.152 230.84C397.309 231.402 396.348 231.848 395.27 232.176C394.191 232.527 392.984 232.703 391.648 232.703C390.055 232.703 388.754 232.492 387.746 232.07C386.738 231.672 385.953 231.168 385.391 230.559C384.828 229.926 384.441 229.246 384.23 228.52C384.043 227.793 383.949 227.125 383.949 226.516ZM393.477 230.137C394.977 230.137 396.254 229.809 397.309 229.152C398.387 228.473 399.277 227.582 399.98 226.48C400.707 225.379 401.281 224.125 401.703 222.719C402.148 221.289 402.477 219.824 402.688 218.324C401.891 218.395 401 218.477 400.016 218.57C399.031 218.664 398.035 218.816 397.027 219.027C396.043 219.215 395.07 219.484 394.109 219.836C393.172 220.164 392.328 220.598 391.578 221.137C390.852 221.676 390.266 222.332 389.82 223.105C389.375 223.855 389.152 224.758 389.152 225.812C389.152 226.703 389.293 227.43 389.574 227.992C389.879 228.531 390.254 228.965 390.699 229.293C391.145 229.621 391.613 229.844 392.105 229.961C392.598 230.078 393.055 230.137 393.477 230.137ZM470.398 212.84L470.258 216.883H450.395L450.535 212.84H470.398ZM505.625 214.492C505.625 216.414 505.297 218.207 504.641 219.871C503.984 221.535 503.094 223.059 501.969 224.441C500.867 225.801 499.59 227.02 498.137 228.098C496.684 229.152 495.148 230.043 493.531 230.77C491.914 231.496 490.273 232.047 488.609 232.422C486.969 232.82 485.398 233.02 483.898 233.02C483.219 233.02 482.457 232.961 481.613 232.844C480.793 232.727 480.02 232.516 479.293 232.211C478.566 231.93 477.957 231.52 477.465 230.98C476.996 230.441 476.762 229.75 476.762 228.906C476.762 228.484 476.844 228.086 477.008 227.711C477.172 227.312 477.359 226.961 477.57 226.656C477.805 226.352 478.039 226.082 478.273 225.848C478.508 225.613 478.695 225.438 478.836 225.32C479.938 226.516 481.238 227.488 482.738 228.238C484.238 228.965 485.891 229.328 487.695 229.328C489.383 229.328 490.988 229.035 492.512 228.449C494.035 227.863 495.371 227.02 496.52 225.918C497.691 224.793 498.617 223.434 499.297 221.84C499.977 220.246 500.316 218.43 500.316 216.391C500.316 213.039 499.391 210.566 497.539 208.973C495.688 207.379 492.934 206.582 489.277 206.582C488.691 206.582 488.047 206.605 487.344 206.652C486.664 206.699 485.984 206.758 485.305 206.828C484.648 206.898 484.004 206.98 483.371 207.074C482.762 207.168 482.234 207.273 481.789 207.391L481.156 206.723L484.109 183.098H499.578C500.492 183.098 501.254 182.992 501.863 182.781C502.473 182.547 502.988 182.254 503.41 181.902C503.855 181.527 504.219 181.117 504.5 180.672C504.781 180.227 505.039 179.793 505.273 179.371L507.137 180.145C506.762 180.941 506.434 181.621 506.152 182.184C505.895 182.723 505.637 183.273 505.379 183.836C505.145 184.375 504.898 184.961 504.641 185.594C504.406 186.227 504.113 187.035 503.762 188.02H486.395L484.461 203.277C485.328 203.066 486.312 202.879 487.414 202.715C488.539 202.551 489.793 202.469 491.176 202.469C493.027 202.469 494.82 202.691 496.555 203.137C498.289 203.559 499.824 204.25 501.16 205.211C502.52 206.172 503.598 207.414 504.395 208.938C505.215 210.461 505.625 212.312 505.625 214.492ZM529.531 184.68C527.797 184.68 526.285 185.043 524.996 185.77C523.73 186.473 522.652 187.422 521.762 188.617C520.871 189.789 520.145 191.137 519.582 192.66C519.043 194.184 518.609 195.754 518.281 197.371C517.977 198.965 517.766 200.547 517.648 202.117C517.555 203.688 517.508 205.105 517.508 206.371C517.508 207.895 517.578 209.559 517.719 211.363C517.883 213.145 518.141 214.926 518.492 216.707C518.844 218.488 519.312 220.211 519.898 221.875C520.508 223.516 521.246 224.969 522.113 226.234C523.004 227.5 524.047 228.52 525.242 229.293C526.461 230.043 527.867 230.418 529.461 230.418C531.172 230.418 532.637 230.008 533.855 229.188C535.074 228.344 536.105 227.242 536.949 225.883C537.816 224.5 538.508 222.93 539.023 221.172C539.539 219.391 539.926 217.562 540.184 215.688C540.465 213.812 540.652 211.949 540.746 210.098C540.84 208.246 540.887 206.547 540.887 205C540.887 201.789 540.652 199.059 540.184 196.809C539.738 194.535 539.164 192.648 538.461 191.148C537.758 189.648 536.961 188.465 536.07 187.598C535.203 186.73 534.348 186.086 533.504 185.664C532.684 185.219 531.91 184.949 531.184 184.855C530.48 184.738 529.93 184.68 529.531 184.68ZM512.375 208.727C512.375 206.641 512.516 204.543 512.797 202.434C513.078 200.324 513.523 198.285 514.133 196.316C514.742 194.324 515.516 192.473 516.453 190.762C517.414 189.027 518.551 187.527 519.863 186.262C521.199 184.973 522.723 183.965 524.434 183.238C526.168 182.488 528.125 182.113 530.305 182.113C532.086 182.113 533.715 182.406 535.191 182.992C536.691 183.578 538.027 184.387 539.199 185.418C540.395 186.449 541.426 187.668 542.293 189.074C543.184 190.48 543.91 191.992 544.473 193.609C545.059 195.227 545.492 196.926 545.773 198.707C546.078 200.465 546.23 202.223 546.23 203.98C546.23 205.785 546.102 207.766 545.844 209.922C545.586 212.055 545.176 214.199 544.613 216.355C544.051 218.512 543.324 220.598 542.434 222.613C541.543 224.605 540.465 226.375 539.199 227.922C537.934 229.469 536.457 230.711 534.77 231.648C533.105 232.562 531.219 233.02 529.109 233.02C527.117 233.02 525.312 232.703 523.695 232.07C522.078 231.438 520.648 230.559 519.406 229.434C518.188 228.309 517.133 226.984 516.242 225.461C515.352 223.914 514.613 222.25 514.027 220.469C513.465 218.664 513.043 216.766 512.762 214.773C512.504 212.781 512.375 210.766 512.375 208.727ZM555.969 230.91L587.434 187.492C586.285 188.078 584.797 188.605 582.969 189.074C581.141 189.52 578.867 189.742 576.148 189.742C575.633 189.742 575.117 189.742 574.602 189.742C574.109 189.742 573.594 189.719 573.055 189.672C573.383 190.469 573.617 191.312 573.758 192.203C573.898 193.07 573.969 193.996 573.969 194.98C573.969 196.199 573.84 197.441 573.582 198.707C573.324 199.949 572.949 201.145 572.457 202.293C571.988 203.441 571.402 204.52 570.699 205.527C569.996 206.535 569.188 207.414 568.273 208.164C567.383 208.891 566.387 209.477 565.285 209.922C564.207 210.344 563.047 210.555 561.805 210.555C560.07 210.555 558.605 210.262 557.41 209.676C556.238 209.066 555.289 208.258 554.562 207.25C553.836 206.242 553.309 205.082 552.98 203.77C552.676 202.434 552.523 201.039 552.523 199.586C552.523 198.484 552.641 197.348 552.875 196.176C553.109 195.004 553.461 193.867 553.93 192.766C554.398 191.641 554.973 190.586 555.652 189.602C556.332 188.594 557.129 187.715 558.043 186.965C558.957 186.215 559.965 185.629 561.066 185.207C562.191 184.762 563.422 184.539 564.758 184.539C565.859 184.539 566.844 184.668 567.711 184.926C568.578 185.16 569.352 185.488 570.031 185.91C570.453 186.145 571.285 186.438 572.527 186.789C573.793 187.117 575.504 187.281 577.66 187.281C579.09 187.281 580.402 187.199 581.598 187.035C582.816 186.871 583.906 186.672 584.867 186.438C585.852 186.203 586.707 185.957 587.434 185.699C588.184 185.418 588.816 185.16 589.332 184.926L591.266 182.254L593.27 183.625L558.008 232.562L555.969 230.91ZM574.426 221.066C574.426 219.988 574.543 218.875 574.777 217.727C575.012 216.555 575.352 215.418 575.797 214.316C576.266 213.191 576.84 212.137 577.52 211.152C578.223 210.145 579.02 209.266 579.91 208.516C580.824 207.742 581.844 207.133 582.969 206.688C584.094 206.242 585.324 206.02 586.66 206.02C588.324 206.02 589.742 206.301 590.914 206.863C592.086 207.402 593.035 208.141 593.762 209.078C594.512 210.016 595.051 211.129 595.379 212.418C595.707 213.684 595.871 215.031 595.871 216.461C595.871 218.289 595.59 220.129 595.027 221.98C594.465 223.832 593.656 225.508 592.602 227.008C591.547 228.484 590.27 229.691 588.77 230.629C587.27 231.543 585.582 232 583.707 232C581.949 232 580.473 231.707 579.277 231.121C578.105 230.535 577.156 229.738 576.43 228.73C575.727 227.723 575.211 226.562 574.883 225.25C574.578 223.914 574.426 222.52 574.426 221.066ZM585.5 208.375C584.258 208.375 583.191 208.738 582.301 209.465C581.434 210.168 580.719 211.07 580.156 212.172C579.617 213.273 579.219 214.48 578.961 215.793C578.703 217.105 578.574 218.359 578.574 219.555C578.574 220.797 578.691 222.016 578.926 223.211C579.184 224.383 579.559 225.438 580.051 226.375C580.566 227.312 581.223 228.062 582.02 228.625C582.816 229.188 583.766 229.469 584.867 229.469C586.133 229.469 587.199 229.129 588.066 228.449C588.957 227.77 589.672 226.902 590.211 225.848C590.773 224.793 591.172 223.621 591.406 222.332C591.641 221.043 591.758 219.801 591.758 218.605C591.758 217.48 591.641 216.32 591.406 215.125C591.172 213.906 590.797 212.805 590.281 211.82C589.766 210.812 589.109 209.992 588.312 209.359C587.539 208.703 586.602 208.375 585.5 208.375ZM563.598 186.93C562.309 186.93 561.219 187.305 560.328 188.055C559.461 188.805 558.758 189.742 558.219 190.867C557.68 191.969 557.293 193.176 557.059 194.488C556.824 195.777 556.707 196.973 556.707 198.074C556.707 199.316 556.824 200.535 557.059 201.73C557.293 202.926 557.668 203.992 558.184 204.93C558.699 205.867 559.344 206.617 560.117 207.18C560.914 207.742 561.863 208.023 562.965 208.023C564.277 208.023 565.367 207.672 566.234 206.969C567.125 206.266 567.84 205.375 568.379 204.297C568.918 203.219 569.305 202.047 569.539 200.781C569.773 199.492 569.891 198.285 569.891 197.16C569.891 196.035 569.762 194.875 569.504 193.68C569.27 192.461 568.895 191.359 568.379 190.375C567.887 189.367 567.242 188.547 566.445 187.914C565.648 187.258 564.699 186.93 563.598 186.93Z" fill="#EDD7D7"/>
</svg>
